<svg aria-hidden="true" style="position: absolute; width: 0; height: 0; overflow: hidden;" version="1.1" xmlns="http://www.w3.org/2000/svg" xmlns:xlink="http://www.w3.org/1999/xlink">
<defs>
<symbol id="icon-klipartzcom" viewBox="0 0 32 32">
<path d="M17.861 0.835c-1.114 0.109-2.198 0.591-3.28 1.466l-0.342 0.276-0.43-0.151c-1.932-0.666-3.516-0.684-4.866-0.058-2.189 1.014-3.031 3.679-2.074 6.55 0.151 0.451 0.282 0.766 0.533 1.266 0.115 0.233 0.206 0.427 0.2 0.433s-0.148-0.036-0.315-0.094c-0.969-0.327-1.899-0.46-2.659-0.382-0.821 0.088-1.481 0.276-2.18 0.624-1.432 0.709-2.323 1.923-2.435 3.316-0.109 1.387 0.481 2.753 1.814 4.182l0.306 0.327-0.124 0.388c-0.481 1.52-0.43 2.886 0.151 4.040 0.678 1.338 2.111 2.253 3.843 2.453 0.451 0.051 1.348 0.021 1.781-0.061 0.551-0.103 0.978-0.245 1.823-0.6 0.033-0.015 0.036 0 0.021 0.070-0.145 0.575-0.206 1.19-0.167 1.738 0.148 2.174 1.796 4 4.015 4.448 1.317 0.27 2.631 0.018 3.764-0.715 0.333-0.215 0.497-0.351 0.836-0.684l0.276-0.27 0.403 0.139c2.747 0.957 4.918 0.475 6.129-1.36 0.433-0.654 0.669-1.32 0.805-2.286 0.058-0.4 0.064-0.554 0.051-1.090-0.021-0.927-0.182-1.596-0.587-2.447l-0.121-0.254 0.094 0.021c0.915 0.197 1.932 0.218 2.865 0.058 1.024-0.176 1.996-0.663 2.719-1.36 0.663-0.636 1.042-1.305 1.22-2.144 0.094-0.436 0.094-1.145 0-1.596-0.215-1.030-0.727-1.977-1.614-2.992l-0.194-0.224 0.16-0.397c0.173-0.439 0.279-0.787 0.375-1.229 0.088-0.412 0.112-1.245 0.045-1.644-0.321-1.959-1.938-3.286-4.454-3.664-0.366-0.054-1.659-0.051-2.044 0.003-0.551 0.079-1.235 0.273-1.587 0.448l-0.148 0.076 0.021-0.073c0.218-0.766 0.212-0.721 0.212-1.417 0.003-0.566-0.006-0.693-0.067-0.969-0.466-2.141-1.983-3.794-3.761-4.1-0.279-0.045-0.818-0.079-1.014-0.061zM19.069 1.949c1.348 0.406 2.45 1.82 2.698 3.455 0.121 0.806-0.003 1.447-0.442 2.311-0.382 0.748-0.769 1.293-2.114 2.971-1.211 1.511-1.508 1.926-1.82 2.535-0.127 0.248-0.318 0.736-0.294 0.757 0.003 0.006 0.109-0.115 0.233-0.27 2.035-2.489 3.437-3.928 4.633-4.751 0.315-0.218 0.978-0.594 1.242-0.706 0.536-0.224 1.148-0.345 1.877-0.369 1.92-0.067 3.604 0.636 4.324 1.808 0.648 1.051 0.548 2.468-0.288 4.097l-0.136 0.266 0.315 0.324c0.636 0.654 1.081 1.257 1.375 1.868 0.291 0.603 0.406 1.069 0.406 1.635 0 0.848-0.27 1.49-0.893 2.123-0.606 0.612-1.299 0.981-2.18 1.16-0.715 0.145-1.675 0.157-2.286 0.033-0.924-0.188-1.457-0.466-3.392-1.787-1.363-0.927-2.192-1.46-3.134-2.014-0.542-0.318-0.5-0.294-0.5-0.279 0 0.006 0.133 0.106 0.297 0.218 1.335 0.942 2.374 1.799 3.292 2.722 1.432 1.438 2.183 2.641 2.471 3.961 0.16 0.745 0.082 1.89-0.188 2.698-0.379 1.145-1.16 1.911-2.232 2.192-0.397 0.103-1.163 0.13-1.656 0.058-0.672-0.097-1.46-0.327-2.186-0.639l-0.369-0.157-0.145 0.2c-0.203 0.282-0.618 0.706-0.902 0.927-0.757 0.584-1.553 0.863-2.483 0.863-0.863 0-1.629-0.233-2.359-0.721-0.282-0.188-0.733-0.624-0.96-0.924-0.324-0.43-0.6-1.084-0.696-1.653-0.051-0.3-0.042-0.969 0.015-1.305 0.154-0.854 0.46-1.384 2.080-3.604 1.357-1.856 1.953-2.759 2.365-3.585 0.151-0.303 0.127-0.282-0.191 0.194-0.33 0.494-0.969 1.341-1.366 1.817-1.747 2.099-3.631 3.479-5.384 3.949-1.556 0.415-3.267 0.064-4.273-0.884-0.675-0.636-0.999-1.36-1.045-2.338-0.036-0.769 0.17-1.72 0.563-2.592l0.085-0.188-0.397-0.372c-1.051-0.993-1.675-1.971-1.887-2.956-0.067-0.318-0.067-0.89 0.003-1.184 0.257-1.099 1.117-1.953 2.429-2.407 0.63-0.221 1.396-0.324 1.98-0.263 1.257 0.124 2.495 0.627 4.43 1.796 1.811 1.093 2.044 1.229 2.374 1.396 0.379 0.191 0.724 0.333 0.884 0.366 0.079 0.015 0.012-0.039-0.279-0.221-3.013-1.893-4.927-4.418-5.342-7.047-0.070-0.448-0.070-1.199 0-1.605 0.236-1.348 1.020-2.307 2.214-2.707 0.436-0.145 0.781-0.197 1.348-0.197 0.927 0.003 1.932 0.233 3.010 0.693l0.33 0.139 0.079-0.070c0.042-0.042 0.182-0.167 0.306-0.282 0.869-0.79 1.793-1.314 2.65-1.499 0.224-0.048 0.36-0.058 0.757-0.048 0.418 0.009 0.521 0.021 0.754 0.091z"></path>
</symbol>
</defs>
</svg>
